<svg xmlns="http://www.w3.org/2000/svg" width="32" height="32" viewBox="0 0 32 32">
  <defs>
    <linearGradient id="gradient" x1="0%" y1="0%" x2="100%" y2="100%">
      <stop offset="0%" style="stop-color:#6B46C1;stop-opacity:1" />
      <stop offset="100%" style="stop-color:#EC4899;stop-opacity:1" />
    </linearGradient>
  </defs>
  
  <!-- Background circle -->
  <circle cx="16" cy="16" r="14" fill="url(#gradient)" stroke="#ffffff" stroke-width="1"/>
  
  <!-- Speech bubble icon -->
  <path d="M8 10 C8 8.9 8.9 8 10 8 L22 8 C23.1 8 24 8.9 24 10 L24 18 C24 19.1 23.1 20 22 20 L14 20 L10 24 L10 20 C8.9 20 8 19.1 8 18 Z" 
        fill="white" 
        stroke="none"/>
  
  <!-- Sound waves -->
  <path d="M12 12 Q14 13 12 14 Q14 15 12 16" 
        fill="none" 
        stroke="url(#gradient)" 
        stroke-width="1.5" 
        stroke-linecap="round"/>
  <path d="M16 11 Q19 13 16 15 Q19 17 16 19" 
        fill="none" 
        stroke="url(#gradient)" 
        stroke-width="1.5" 
        stroke-linecap="round"/>
</svg>